# xmcd
#
# Track frame offsets:
# 150
# 13871
# 31849
# 45735
# 68186
# 87243
# 102115
# 116018
# 132585
# 147320
# 166812
#
# Disc length: 2452 seconds
#
# Revision: 0
# Processed by: cddbd v1.5PL3 Copyright (c) Steve Scherf et al.
# Submitted via: Audion 3.0.2 (http://www.panic.com/audion/)
#
DISCID=9309920b
DTITLE=Quatropaw - Hole In The Wall
DYEAR=1900
DGENRE=
TTITLE0=Complicated
TTITLE1=Little Girl's World
TTITLE2=In My Lane
TTITLE3=In The Sunshine
TTITLE4=Addiction
TTITLE5=Last Night
TTITLE6=Coffee and Cigarettes
TTITLE7=Passionate
TTITLE8=Alcohol
TTITLE9=I'll Fly
TTITLE10=8
EXTD=
EXTT0=
EXTT1=
EXTT2=
EXTT3=
EXTT4=
EXTT5=
EXTT6=
EXTT7=
EXTT8=
EXTT9=
EXTT10=
PLAYORDER=
